<?xml version="1.0" encoding="iso-8859-1"?>
<!-- Generator: Adobe Illustrator 19.0.0, SVG Export Plug-In . SVG Version: 6.00 Build 0)  -->
<svg version="1.1" id="Layer_1" xmlns="http://www.w3.org/2000/svg" xmlns:xlink="http://www.w3.org/1999/xlink" x="0px" y="0px"
	 viewBox="0 0 396.498 396.498" style="enable-background:new 0 0 396.498 396.498;" xml:space="preserve">
<g>
	<g>
		<g>
			<path d="M340.284,181.231c1.425-1.678,2.041-3.897,1.685-6.069l-14.341-87.42c-0.595-3.625-3.728-6.286-7.401-6.286H76.268
				c-3.674,0-6.807,2.661-7.401,6.287l-14.33,87.42c-0.355,2.172,0.26,4.391,1.686,6.069c1.425,1.678,3.515,2.645,5.716,2.645
				H334.57C336.77,183.876,338.859,182.909,340.284,181.231z M70.766,168.876l11.872-72.42h231.219l11.881,72.42H70.766z"/>
			<path d="M340.352,310.948c-0.019-0.044-0.034-0.082-0.045-0.106C340.316,310.862,340.33,310.894,340.352,310.948z"/>
			<path d="M340.352,310.948c0.018,0.044,0.034,0.082,0.045,0.106C340.389,311.034,340.375,311.002,340.352,310.948z"/>
			<path d="M340.397,311.054C340.41,311.085,340.407,311.076,340.397,311.054L340.397,311.054z"/>
			<path d="M338.732,308.508c-2.946-2.863-7.664-2.864-10.609,0c-4.031,4.153-2.031,11.332,3.661,12.621
				c5.78,1.309,10.897-4.673,8.568-10.181C339.969,310.038,339.419,309.215,338.732,308.508z"/>
			<path d="M340.308,310.842C340.295,310.811,340.298,310.82,340.308,310.842L340.308,310.842z"/>
			<path d="M380.528,0H15.971c-4.143,0-7.5,3.358-7.5,7.5v335.223c0,4.142,3.357,7.5,7.5,7.5h14.388v29.876
				c0,9.042,7.356,16.399,16.399,16.399h52.87c9.043,0,16.399-7.356,16.399-16.399v-29.876h29.414
				c1.486,13.728,13.141,24.452,27.257,24.452h64.8c14.116,0,25.773-10.724,27.258-24.452h15.714v29.876
				c0,9.042,7.356,16.399,16.398,16.399h52.871c9.042,0,16.398-7.356,16.398-16.399v-29.876h14.389c4.143,0,7.5-3.358,7.5-7.5V7.5
				C388.028,3.358,384.671,0,380.528,0z M101.028,380.099h-0.001c0,0.771-0.628,1.399-1.399,1.399h-52.87
				c-0.771,0-1.399-0.627-1.399-1.399v-29.876h55.669V380.099z M237.498,359.675h-64.8c-5.824,0-10.71-4.035-12.047-9.452h88.895
				C248.209,355.64,243.323,359.675,237.498,359.675z M47.146,335.224v-13.907h265.382c4.143,0,7.5-3.358,7.5-7.5
				c0-4.142-3.357-7.5-7.5-7.5H47.146v-16.466h49.889c11.579,0,20.999-9.42,20.999-20.999v-11.106
				c0-11.579-9.42-20.999-20.999-20.999H47.146v-59.764L63.95,74.452h268.598l16.805,102.531v59.764h-49.889
				c-11.579,0-21,9.42-21,20.999v11.106c0,11.579,9.421,20.999,21,20.999h49.889v45.373H47.146z M47.145,274.851v-23.104h8.42
				v23.104H47.145z M103.034,257.746v11.106c0,3.308-2.691,5.999-5.999,5.999H70.565v-23.104h26.469v0
				C100.342,251.747,103.034,254.438,103.034,257.746z M349.354,251.747v23.104h-8.42v-23.104H349.354z M325.933,251.747v23.104
				h-26.469c-3.309,0-6-2.691-6-5.999v-11.106c0-3.308,2.691-5.999,6-5.999H325.933z M351.139,380.099
				c0,0.772-0.627,1.399-1.399,1.399H296.87c-0.771,0-1.398-0.627-1.398-1.399v-29.876h55.668V380.099z M373.028,335.223h-8.675
				V176.372c0-0.406-0.033-0.812-0.099-1.213L346.32,65.739c-0.595-3.626-3.728-6.287-7.401-6.287H57.579
				c-3.674,0-6.807,2.661-7.401,6.287l-17.934,109.42c-0.065,0.401-0.099,0.807-0.099,1.213v158.851H23.47V15h349.557V335.223z"/>
		</g>
	</g>
</g>
<g>
</g>
<g>
</g>
<g>
</g>
<g>
</g>
<g>
</g>
<g>
</g>
<g>
</g>
<g>
</g>
<g>
</g>
<g>
</g>
<g>
</g>
<g>
</g>
<g>
</g>
<g>
</g>
<g>
</g>
</svg>
