<?xml version="1.0" encoding="iso-8859-1"?>
<!-- Generator: Adobe Illustrator 16.0.0, SVG Export Plug-In . SVG Version: 6.00 Build 0)  -->
<!DOCTYPE svg PUBLIC "-//W3C//DTD SVG 1.1//EN" "http://www.w3.org/Graphics/SVG/1.1/DTD/svg11.dtd">
<svg version="1.1" id="Capa_1" xmlns="http://www.w3.org/2000/svg" xmlns:xlink="http://www.w3.org/1999/xlink" x="0px"
     y="0px"
     width="49px" height="49px" viewBox="0 0 49 49" xml:space="preserve">
<g>
	<path d="M46.6,16.589h-0.971v-2.785c0-0.269-0.215-0.486-0.482-0.486h-3.113V0.484C42.033,0.216,41.817,0,41.547,0h-0.094H7.55
		H7.457C7.188,0,6.972,0.216,6.972,0.484v12.834H3.855c-0.267,0-0.484,0.217-0.484,0.486v2.785H2.402
		c-0.536,0-0.969,0.435-0.969,0.969v5.086c0,0.534,0.433,0.969,0.969,0.969H5.31c0.534,0,0.969-0.435,0.969-0.969v-5.086
		c0-0.534-0.435-0.969-0.969-0.969H4.34v-2.301H6.97v18.331C6.407,32.818,6,33.352,6,33.982v5.65c0,0.481,0.236,0.904,0.598,1.167
		C6.237,41.066,6,41.488,6,41.971v2.271c0,0.805,0.651,1.453,1.453,1.453h2.597v2.334c0,0.535,0.581,0.971,1.302,0.971h4.339
		c0.72,0,1.302-0.436,1.302-0.971v-2.334H32.01v2.334c0,0.535,0.58,0.971,1.302,0.971h4.339c0.719,0,1.303-0.436,1.303-0.971v-2.334
		h2.594c0.804,0,1.451-0.651,1.451-1.453v-2.271c0-0.481-0.234-0.904-0.597-1.171c0.361-0.263,0.597-0.686,0.597-1.167v-5.65
		c0-0.631-0.404-1.164-0.968-1.363V14.288h2.63v2.301h-0.97c-0.536,0-0.97,0.435-0.97,0.969v5.086c0,0.534,0.434,0.969,0.97,0.969
		h2.905c0.537,0,0.971-0.435,0.971-0.969v-5.086C47.566,17.023,47.135,16.589,46.6,16.589z M7.938,14.288H9V32.53H7.938V14.288z
		 M9.627,44.477c-0.736,0-1.332-0.596-1.332-1.332c0-0.734,0.596-1.334,1.332-1.334s1.332,0.6,1.332,1.334
		C10.958,43.882,10.365,44.477,9.627,44.477z M13.179,44.477c-0.735,0-1.332-0.596-1.332-1.332c0-0.734,0.597-1.334,1.332-1.334
		c0.736,0,1.333,0.6,1.333,1.334C14.513,43.882,13.914,44.477,13.179,44.477z M14.731,38.99H8.273v-3.956h6.458V38.99z
		 M12.876,22.67v-9.836h10.171v9.836H12.876z M32.17,40.966H16.832v-1.76H32.17V40.966L32.17,40.966z M32.17,38.189H16.832v-2.205
		H32.17V38.189L32.17,38.189z M32.17,34.968H16.832v-2.202H32.17V34.968L32.17,34.968z M32.17,31.748H16.832v-2.204H32.17V31.748
		L32.17,31.748z M25.953,22.67v-9.836h10.172v9.836H25.953z M35.822,44.479c-0.734,0-1.332-0.599-1.332-1.336
		c0-0.733,0.598-1.332,1.332-1.332c0.737,0,1.334,0.599,1.334,1.332C37.154,43.882,36.558,44.479,35.822,44.479z M39.373,44.479
		c-0.736,0-1.332-0.599-1.332-1.336c0-0.733,0.596-1.332,1.332-1.332s1.332,0.599,1.332,1.332
		C40.705,43.882,40.109,44.479,39.373,44.479z M40.728,38.99h-6.46v-3.956h6.46V38.99z M41.062,32.53H40V14.288h1.062V32.53
		L41.062,32.53z M41.062,13.318H40v-2.423c0-1.069-0.867-1.938-1.938-1.938H10.939c-1.071,0-1.938,0.867-1.938,1.938v2.423H7.938
		V6.055h33.124V13.318z" />
</g>
  <g>
</g>
  <g>
</g>
  <g>
</g>
  <g>
</g>
  <g>
</g>
  <g>
</g>
  <g>
</g>
  <g>
</g>
  <g>
</g>
  <g>
</g>
  <g>
</g>
  <g>
</g>
  <g>
</g>
  <g>
</g>
  <g>
</g>
</svg>
